<svg xmlns="http://www.w3.org/2000/svg" fill="none" viewBox="0 0 24 24" id="Apache-Superset-Icon--Streamline-Svg-Logos" height="24" width="24">
  <desc>
    Apache Superset Icon Streamline Icon: https://streamlinehq.com
  </desc>
  <path fill="#484848" d="M17.7115 6.167c-2.0149 0 -3.871 1.133575 -5.664775 3.114225C10.28405 7.269425 8.396825 6.167 6.2885 6.167 2.79745 6.167 0.25 8.658375 0.25 12.0124c0 3.354025 2.54745 5.814275 6.0385 5.814275 2.1457 0 3.8087 -1.0059 5.664775 -3.01145 1.7938 2.011775 3.61875 3.017675 5.758225 3.017675C21.20255 17.826675 23.75 15.375775 23.75 12.0124S21.20255 6.167 17.7115 6.167ZM6.3134 14.3076c-1.47925 0 -2.360575 -0.97475 -2.360575 -2.26405 0 -1.2893 0.881325 -2.292075 2.360575 -2.292075 1.2457 0 2.26405 1.002775 3.3665 2.35435 -1.04015 1.25815 -2.139475 2.201775 -3.3665 2.201775Zm11.292225 0c-1.227025 0 -2.26405 -0.97475 -3.3665 -2.26405 1.1336 -1.351575 2.10835 -2.292075 3.3665 -2.292075 1.47925 0 2.35125 1.01525 2.35125 2.292075s-0.872 2.26405 -2.35125 2.26405Z" stroke-width="0.25"></path>
  <path fill="#20a7c9" d="m14.58165 16.99515 2.34815 -2.8028c-0.934275 -0.280275 -1.796925 -1.121125 -2.6907 -2.1644l-2.28585 2.78725c0.74835 0.86825 1.63685 1.605075 2.6284 2.17995Z" stroke-width="0.25"></path>
  <path fill="#20a7c9" d="M12.04685 9.278c-0.743375 -0.8807 -1.62625 -1.634025 -2.61285 -2.229775l-2.351225 2.83395c0.893775 0.311425 1.6848 1.1149 2.525625 2.139475l0.093425 0.0654 2.345025 -2.80905Z" stroke-width="0.25"></path>
</svg>