<svg xmlns="http://www.w3.org/2000/svg" fill="none" viewBox="0 0 48 48" id="Dbt--Streamline-Svg-Logos" height="48" width="48">
  <desc>
    Dbt Streamline Icon: https://streamlinehq.com
  </desc>
  <path fill="#262a38" d="M31.22775 17.8025v12.24885h-2.48235v-1.24925c-0.2596 0.43805 -0.6326 0.795 -1.08695 1.0221 -0.4867 0.24335 -1.03835 0.37315 -1.5898 0.37315 -0.68145 0.01625 -1.3629 -0.17845 -1.9307 -0.56785 -0.58395 -0.38935 -1.0383 -0.9247 -1.3304 -1.55745 -0.3244 -0.73005 -0.48665 -1.5088 -0.4705 -2.30375 -0.01615 -0.79495 0.1461 -1.5737 0.4705 -2.2875 0.2921 -0.61655 0.74645 -1.1519 1.31425 -1.52505 0.58395 -0.37315 1.2654 -0.5516 1.94685 -0.5354 0.5353 0 1.0706 0.1136 1.54115 0.35695 0.45435 0.2271 0.8274 0.5678 1.08695 0.98965v-4.13705l2.531 -0.8274Zm-2.98515 9.83155c0.32435 -0.42185 0.5028 -1.03835 0.5028 -1.8333 0 -0.79495 -0.1621 -1.39525 -0.5028 -1.81705 -0.34075 -0.4218 -0.87625 -0.66515 -1.4277 -0.64895 -0.55165 -0.03245 -1.08695 0.2109 -1.44405 0.63275 -0.3405 0.4218 -0.51915 1.0221 -0.51915 1.8008 0 0.79495 0.17865 1.41145 0.51915 1.8495 0.34075 0.43805 0.8924 0.6814 1.44405 0.6652 0.61645 0 1.1031 -0.22715 1.4277 -0.64895Zm11.85955 -5.6945c0.58395 0.3731 1.0383 0.9085 1.31405 1.525 0.32435 0.71385 0.48665 1.49255 0.4705 2.28755 0.01615 0.79495 -0.14615 1.5899 -0.4705 2.30375 -0.2921 0.6327 -0.74625 1.1681 -1.3304 1.55745 -0.5678 0.37315 -1.24925 0.56785 -1.9305 0.5516 -0.55165 0.01625 -1.10335 -0.11355 -1.59 -0.37315 -0.45415 -0.2271 -0.8274 -0.58405 -1.0708 -1.02205v1.2654h-2.4983V18.6299l2.51465 -0.8274v4.99685c0.2432 -0.438 0.61645 -0.79495 1.0706 -1.02205 0.48685 -0.2596 1.0222 -0.38935 1.57385 -0.37315 0.68125 -0.0162 1.3627 0.17845 1.94685 0.5354Zm-1.2331 5.67825c0.3407 -0.43805 0.503 -1.05455 0.503 -1.8657 0 -0.77875 -0.1623 -1.37905 -0.503 -1.80085 -0.34075 -0.4218 -0.81125 -0.6327 -1.4277 -0.6327 -0.55145 -0.03245 -1.08695 0.2109 -1.44385 0.64895 -0.3407 0.438 -0.503 1.0383 -0.503 1.81705 0 0.79495 0.1623 1.41145 0.503 1.83325 0.34075 0.43805 0.87605 0.6814 1.44385 0.64895 0.55165 0.03245 1.08695 -0.2109 1.4277 -0.64895Zm6.4895 -4.1208v3.27715c0 0.4705 0.1298 0.8112 0.35705 1.0221 0.2596 0.22715 0.60015 0.3407 0.9572 0.3245 0.27575 0 0.5678 -0.0487 0.8274 -0.1136v1.94685c-0.47055 0.16225 -0.9572 0.24335 -1.44405 0.22715 -1.03815 0 -1.8332 -0.29205 -2.3849 -0.8761 -0.55145 -0.58405 -0.82735 -1.41145 -0.82735 -2.4822V19.63575l2.51465 -0.81115v2.79045h2.14165v1.88195h-2.14165Z" stroke-width="0.5"></path>
  <path fill="#ff694a" d="M17.68085 15.7746c0.4218 0.4056 0.6976 0.941 0.7625 1.52505 0 0.24335 -0.0649 0.4056 -0.2109 0.7138 -0.146 0.30825 -1.94685 3.4232 -2.4822 4.28305 -0.30825 0.50295 -0.4705 1.10325 -0.4705 1.68725 0 0.6003 0.16225 1.18435 0.4705 1.6873 0.53535 0.85985 2.3362 3.991 2.4822 4.29925 0.146 0.30825 0.2109 0.45425 0.2109 0.6976 -0.0649 0.58405 -0.3245 1.11945 -0.7463 1.5088 -0.4056 0.4218 -0.94095 0.69765 -1.5088 0.7463 -0.24335 0 -0.4056 -0.0649 -0.6976 -0.2109 -0.29205 -0.14605 -3.47185 -1.8982 -4.3317 -2.43355 -0.0649 -0.03245 -0.1298 -0.08115 -0.2109 -0.1136l-4.2506 -2.51465c0.0973 0.8112 0.45425 1.58995 1.0383 2.15775 0.11355 0.11355 0.22715 0.2109 0.3569 0.30825 -0.09735 0.04865 -0.2109 0.09735 -0.30825 0.16225 -0.85985 0.53535 -3.991 2.3362 -4.299245 2.4822 -0.308245 0.146 -0.454265 0.2109 -0.713845 0.2109 -0.58405 -0.0649 -1.11943 -0.32445 -1.5088 -0.74625 -0.421815 -0.4056 -0.697615 -0.941 -0.76251 -1.52505 0.016225 -0.24335 0.08112 -0.4867 0.21091 -0.6976 0.14601 -0.30825 1.946835 -3.43945 2.482205 -4.2993 0.30827 -0.5029 0.470495 -1.08695 0.470495 -1.68725 0 -0.60025 -0.162225 -1.1843 -0.470495 -1.68725 -0.53537 -0.8923 -2.35242 -4.02345 -2.482205 -4.3317 -0.12979 -0.2109 -0.194685 -0.45425 -0.21091 -0.6976 0.064895 -0.58405 0.324475 -1.11945 0.74629 -1.52505 0.40559 -0.4218 0.94097 -0.6814 1.52502 -0.7463 0.24335 0.01625 0.4867 0.08115 0.713845 0.21095 0.25958 0.11355 2.547095 1.4439 3.763895 2.15775l0.2758 0.1622c0.0973 0.0649 0.17845 0.11355 0.24335 0.14605l0.1298 0.0811 4.3317 2.56335c-0.09735 -0.97345 -0.6003 -1.86575 -1.379 -2.466 0.09735 -0.0487 0.2109 -0.09735 0.30825 -0.16225 0.85985 -0.5354 3.991 -2.35245 4.29925 -2.4822 0.2109 -0.1298 0.45425 -0.1947 0.71385 -0.21095 0.5678 0.0649 1.1032 0.3245 1.5088 0.7463ZM9.6988 25.1519l0.92475 -0.9248c0.1298 -0.12975 0.1298 -0.32445 0 -0.45425l-0.92475 -0.92475c-0.1298 -0.1298 -0.32445 -0.1298 -0.45425 0l-0.92475 0.92475c-0.1298 0.1298 -0.1298 0.3245 0 0.45425l0.92475 0.9248c0.11355 0.11355 0.32445 0.11355 0.45425 0Z" stroke-width="0.5"></path>
</svg>