<svg xmlns="http://www.w3.org/2000/svg" fill="none" viewBox="0 0 24 24" id="Metabase--Streamline-Svg-Logos" height="24" width="24">
  <desc>
    Metabase Streamline Icon: https://streamlinehq.com
  </desc>
  <path fill="#509ee3" d="M4.11495 7.688875c0.77765 0 1.40805 -0.6405 1.40805 -1.43055 0 -0.790075 -0.6304 -1.430575 -1.40805 -1.430575 -0.777625 0 -1.40805 0.6405 -1.40805 1.430575 0 0.79005 0.630425 1.43055 1.40805 1.43055Z" stroke-width="0.25"></path>
  <path fill="#509ee3" d="M4.11495 11.694425c0.77765 0 1.40805 -0.640475 1.40805 -1.43055s-0.6304 -1.43055 -1.40805 -1.43055c-0.777625 0 -1.40805 0.640475 -1.40805 1.43055s0.630425 1.43055 1.40805 1.43055Z" stroke-width="0.25"></path>
  <path fill="#509ee3" d="M8.05735 7.688875c0.777625 0 1.40805 -0.6405 1.40805 -1.43055 0 -0.790075 -0.630425 -1.430575 -1.40805 -1.430575 -0.77765 0 -1.40805 0.6405 -1.40805 1.430575 0 0.79005 0.6304 1.43055 1.40805 1.43055Z" opacity=".2" stroke-width="0.25"></path>
  <path fill="#509ee3" d="M8.05735 11.7333c0.777625 0 1.40805 -0.640475 1.40805 -1.43055s-0.630425 -1.43055 -1.40805 -1.43055c-0.77765 0 -1.40805 0.640475 -1.40805 1.43055s0.6304 1.43055 1.40805 1.43055Z" stroke-width="0.25"></path>
  <path fill="#509ee3" d="M12.0001 7.688875c0.777625 0 1.408025 -0.6405 1.408025 -1.43055 0 -0.790075 -0.6304 -1.430575 -1.408025 -1.430575 -0.77765 0 -1.40805 0.6405 -1.40805 1.430575 0 0.79005 0.6304 1.43055 1.40805 1.43055Z" opacity=".2" stroke-width="0.25"></path>
  <path fill="#509ee3" d="M12.0001 3.1111c0.777625 0 1.408025 -0.6404725 1.408025 -1.430545C13.408125 0.89048 12.777725 0.25 12.0001 0.25c-0.77765 0 -1.40805 0.64048 -1.40805 1.430555 0 0.7900725 0.6304 1.430545 1.40805 1.430545Z" opacity=".2" stroke-width="0.25"></path>
  <path fill="#509ee3" d="M12.0001 11.7333c0.777625 0 1.408025 -0.640475 1.408025 -1.43055s-0.6304 -1.43055 -1.408025 -1.43055c-0.77765 0 -1.40805 0.640475 -1.40805 1.43055s0.6304 1.43055 1.40805 1.43055Z" opacity=".2" stroke-width="0.25"></path>
  <path fill="#509ee3" d="M15.942475 7.688875c0.77765 0 1.40805 -0.6405 1.40805 -1.43055 0 -0.790075 -0.6304 -1.430575 -1.40805 -1.430575 -0.77765 0 -1.40805 0.6405 -1.40805 1.430575 0 0.79005 0.6304 1.43055 1.40805 1.43055Z" opacity=".2" stroke-width="0.25"></path>
  <path fill="#509ee3" d="M19.8851 7.688875c0.77765 0 1.40805 -0.6405 1.40805 -1.43055 0 -0.790075 -0.6304 -1.430575 -1.40805 -1.430575 -0.77765 0 -1.40805 0.6405 -1.40805 1.430575 0 0.79005 0.6304 1.43055 1.40805 1.43055Z" stroke-width="0.25"></path>
  <path fill="#509ee3" d="M15.942475 11.7333c0.77765 0 1.40805 -0.640475 1.40805 -1.43055s-0.6304 -1.43055 -1.40805 -1.43055c-0.77765 0 -1.40805 0.640475 -1.40805 1.43055s0.6304 1.43055 1.40805 1.43055Z" stroke-width="0.25"></path>
  <path fill="#509ee3" d="M19.8851 11.7333c0.77765 0 1.40805 -0.640475 1.40805 -1.43055s-0.6304 -1.43055 -1.40805 -1.43055c-0.77765 0 -1.40805 0.640475 -1.40805 1.43055s0.6304 1.43055 1.40805 1.43055Z" stroke-width="0.25"></path>
  <path fill="#509ee3" d="M4.11495 15.699975c0.77765 0 1.40805 -0.640475 1.40805 -1.43055s-0.6304 -1.43055 -1.40805 -1.43055c-0.777625 0 -1.40805 0.640475 -1.40805 1.43055s0.630425 1.43055 1.40805 1.43055Z" stroke-width="0.25"></path>
  <path fill="#509ee3" d="M8.05735 15.738925c0.777625 0 1.40805 -0.6405 1.40805 -1.430575 0 -0.79005 -0.630425 -1.43055 -1.40805 -1.43055 -0.77765 0 -1.40805 0.6405 -1.40805 1.43055 0 0.790075 0.6304 1.430575 1.40805 1.430575Z" opacity=".2" stroke-width="0.25"></path>
  <path fill="#509ee3" d="M12.0001 15.738925c0.777625 0 1.408025 -0.6405 1.408025 -1.430575 0 -0.79005 -0.6304 -1.43055 -1.408025 -1.43055 -0.77765 0 -1.40805 0.6405 -1.40805 1.43055 0 0.790075 0.6304 1.430575 1.40805 1.430575Z" stroke-width="0.25"></path>
  <path fill="#509ee3" d="M15.942475 15.738925c0.77765 0 1.40805 -0.6405 1.40805 -1.430575 0 -0.79005 -0.6304 -1.43055 -1.40805 -1.43055 -0.77765 0 -1.40805 0.6405 -1.40805 1.43055 0 0.790075 0.6304 1.430575 1.40805 1.430575Z" opacity=".2" stroke-width="0.25"></path>
  <path fill="#509ee3" d="M19.8851 15.738925c0.77765 0 1.40805 -0.6405 1.40805 -1.430575 0 -0.79005 -0.6304 -1.43055 -1.40805 -1.43055 -0.77765 0 -1.40805 0.6405 -1.40805 1.43055 0 0.790075 0.6304 1.430575 1.40805 1.430575Z" stroke-width="0.25"></path>
  <path fill="#509ee3" d="M4.11495 19.7056c0.77765 0 1.40805 -0.6405 1.40805 -1.43055 0 -0.790075 -0.6304 -1.430575 -1.40805 -1.430575 -0.777625 0 -1.40805 0.6405 -1.40805 1.430575 0 0.79005 0.630425 1.43055 1.40805 1.43055Z" stroke-width="0.25"></path>
  <path fill="#509ee3" d="M8.05735 19.744475c0.777625 0 1.40805 -0.640475 1.40805 -1.43055s-0.630425 -1.430575 -1.40805 -1.430575c-0.77765 0 -1.40805 0.6405 -1.40805 1.430575s0.6304 1.43055 1.40805 1.43055Z" opacity=".2" stroke-width="0.25"></path>
  <path fill="#509ee3" d="M12.0001 19.744475c0.777625 0 1.408025 -0.640475 1.408025 -1.43055s-0.6304 -1.430575 -1.408025 -1.430575c-0.77765 0 -1.40805 0.6405 -1.40805 1.430575s0.6304 1.43055 1.40805 1.43055Z" opacity=".2" stroke-width="0.25"></path>
  <path fill="#509ee3" d="M12.0001 23.750025c0.777625 0 1.408025 -0.640475 1.408025 -1.43055s-0.6304 -1.43055 -1.408025 -1.43055c-0.77765 0 -1.40805 0.640475 -1.40805 1.43055s0.6304 1.43055 1.40805 1.43055Z" opacity=".2" stroke-width="0.25"></path>
  <path fill="#509ee3" d="M15.942475 19.744475c0.77765 0 1.40805 -0.640475 1.40805 -1.43055s-0.6304 -1.430575 -1.40805 -1.430575c-0.77765 0 -1.40805 0.6405 -1.40805 1.430575s0.6304 1.43055 1.40805 1.43055Z" opacity=".2" stroke-width="0.25"></path>
  <path fill="#509ee3" d="M19.8851 19.744475c0.77765 0 1.40805 -0.640475 1.40805 -1.43055s-0.6304 -1.430575 -1.40805 -1.430575c-0.77765 0 -1.40805 0.6405 -1.40805 1.430575s0.6304 1.43055 1.40805 1.43055Z" stroke-width="0.25"></path>
</svg>