<svg xmlns="http://www.w3.org/2000/svg" width="64" height="64" viewBox="0 0 64 64">
    <g fill="none" fill-rule="evenodd">
        <g>
            <g>
                <g transform="translate(-432 -2527) translate(408 240) translate(24 2287)">
                    <rect width="64" height="64" fill="#FFEC00" rx="14"/>
                    <path fill="#DA251D" d="M17.484 20h-7.38v3.191h4.309L14.442 44h3.042V20zm30.277 2.986v.104l.01.103.013.104.016.1.023.1.027.097.032.096.035.094.043.09.043.09.048.087.052.084.06.08.058.076.062.077.07.07.068.071.075.064.075.06.079.06.081.053.084.05.089.044.088.043.092.037.095.033.094.027.098.024.098.016.101.013.101.01h.21l.1-.01.105-.013.1-.016.098-.024.095-.027.095-.033.092-.037.092-.043.085-.043.085-.05.08-.054.08-.06.074-.06.075-.064.07-.07.065-.07.062-.078.058-.076.056-.08.052-.084.05-.087.041-.09.043-.09.033-.094.032-.096.026-.097.023-.1.016-.1.013-.104.006-.103.004-.104-.004-.107-.006-.103-.013-.104-.016-.1-.023-.096-.026-.097-.032-.097-.033-.09-.043-.09-.041-.087-.05-.087-.052-.083-.056-.077-.058-.077-.062-.073-.066-.07-.069-.067-.075-.064-.074-.06-.08-.056-.08-.054-.085-.05-.085-.044-.092-.04-.092-.037-.095-.03-.095-.026-.098-.024-.1-.016-.105-.014-.1-.01h-.21l-.1.01-.102.014-.098.016-.098.024-.094.027-.095.03-.092.036-.088.04-.089.044-.084.05-.081.054-.079.056-.075.06-.075.064-.069.066-.069.071-.062.073-.059.077-.059.077-.052.083-.048.087-.043.087-.043.09-.034.089-.032.097-.026.097-.023.097-.017.1-.013.103-.01.103v.108zm.42.029l.003-.09.007-.087.009-.087.013-.087.017-.083.023-.08.026-.08.026-.077.033-.076.036-.074.04-.073.042-.067.042-.066.05-.067.05-.06.054-.06.056-.056.055-.054.062-.05.063-.047.07-.043.065-.044.071-.036.073-.034.072-.03.074-.026.079-.024.079-.02.081-.013.082-.01.082-.007.085-.003.085.003.085.007.082.01.082.013.079.02.078.024.075.026.076.03.075.034.069.036.07.044.068.043.066.047.062.05.059.054.055.056.056.06.052.06.05.067.046.066.043.067.039.073.036.074.033.076.03.077.026.08.023.08.02.083.013.087.01.087.006.087.002.09-.003.09-.007.09-.01.09-.013.086-.02.087-.023.083-.026.084-.03.08-.032.08-.037.076-.039.074-.042.07-.047.07-.05.067-.052.064-.056.06-.054.06-.06.053-.062.053-.065.05-.07.047-.068.04-.07.04-.075.034-.075.033-.075.027-.079.023-.078.02-.082.016-.082.01-.085.007-.085.004-.085-.004-.082-.006-.082-.01-.082-.017-.078-.02-.079-.023-.075-.027-.072-.033-.072-.033-.072-.04-.065-.04-.07-.048-.062-.05-.062-.053-.056-.053-.056-.06-.054-.06-.05-.064-.049-.066-.043-.07-.042-.071-.04-.074-.034-.076-.033-.08-.026-.08-.026-.083-.023-.084-.017-.086-.013-.087-.01-.09-.007-.09-.002-.09zm.922.985h.376v-.864h.29l.077.003.066.007.06.01.054.014.044.02.036.021.034.024.023.028.02.027.017.03.013.032.01.034.003.034.004.034.003.035v.25l.004.076.006.058.006.024.004.02.007.018.01.013.01.014.01.014.013.01.016.014h.378l-.017-.017-.01-.017-.01-.018-.01-.017-.013-.034-.007-.048-.007-.127-.013-.199-.003-.09-.007-.081-.007-.042-.006-.037-.01-.038-.013-.038-.017-.034-.02-.031-.024-.03-.026-.028-.034-.025-.036-.024-.04-.02-.047-.02.057-.021.05-.028.043-.027.04-.028.03-.027.03-.03.024-.036.02-.03.017-.031.01-.035.01-.03.007-.031.01-.066v-.106l-.004-.045-.006-.044-.01-.041-.01-.038-.014-.038-.017-.03-.013-.035-.02-.027-.02-.028-.02-.024-.023-.024-.023-.02-.024-.021-.026-.018-.027-.016-.053-.028-.057-.024-.053-.014-.057-.014-.053-.01-.05-.003-.043-.004h-.94V24h-.002zm.336-1.74h.393l.044.004.04.006.038.007.038.01.033.012.028.013.028.019.028.019.022.022.019.023.016.029.012.031.009.032.007.038v.067l-.004.026-.003.025-.007.029-.009.025-.01.026-.015.022-.015.022-.022.023-.025.019-.028.019-.034.013-.037.012-.04.01-.05.003-.053.004h-.403v-.609zm9.56 16.339H31.887l-.339-.011-.33-.027-.329-.041-.321-.06-.315-.075-.309-.091-.305-.108-.296-.117-.29-.138-.281-.15-.273-.161-.264-.176-.256-.189-.244-.2-.237-.212-.227-.226-.215-.234-.204-.246-.192-.258-.182-.262-.169-.276-.16-.284-.142-.292-.13-.3-.117-.31-.1-.313-.087-.322-.072-.327-.059-.334-.042-.342-.023-.344-.01-.351.006-.348.023-.344.036-.338.055-.334.069-.327.084-.324.1-.318.115-.31.127-.305.14-.293.152-.287.169-.28.179-.27.187-.26.204-.25.211-.24.225-.23.236-.215.245-.207.254-.192.263-.183.272-.166.283-.155.29-.14.298-.124.302-.112.312-.09.319-.078.324-.064.332-.044.338-.027.34-.01.332.01.328.027.325.047.318.062.315.08.312.098.302.112.3.128.291.145.282.16.277.171.27.19.26.2.25.216.24.226.234.24.221.25.208.263.198.274.189.283.175.297.16.304.15.314.136.324.12.331.108.341.092.345.075.354.058.365.046.367.026.372.006.38h-3.05l-.003-.212-.01-.206-.02-.206-.029-.199-.032-.199-.042-.193-.05-.19-.054-.186-.063-.182-.07-.176-.076-.168-.084-.167-.091-.162-.098-.151-.104-.149-.107-.143-.117-.135-.124-.128-.13-.12-.132-.114-.14-.105-.15-.098-.152-.09-.155-.078-.166-.075-.168-.064-.176-.054-.179-.044-.188-.037-.188-.027-.198-.013-.202-.007-.202.007-.194.013-.192.027-.185.037-.182.044-.175.054-.169.064-.162.075-.16.08-.153.093-.146.098-.143.105-.133.114-.13.12-.12.128-.117.135-.11.143-.105.148-.097.152-.087.162-.085.166-.078.169-.069.176-.064.182-.056.186-.048.19-.042.193-.033.2-.026.198-.02.206-.012.206-.004.212.007.17.013.166.026.165.033.16.045.158.049.151.062.153.068.146.075.142.081.139.092.134.097.128.105.126.106.119.118.117.12.107.123.107.13.097.136.095.14.088.143.08.146.074.15.072.152.06.153.058.16.048.16.045.16.034.163.027.162.02.166.01.163.006H59v3.169l-.002-.01zm0 4.966H31.925l-.575-.013-.568-.044-.565-.067-.552-.098-.546-.12-.532-.149-.526-.175-.513-.198-.5-.22-.49-.246-.474-.265-.462-.29-.445-.31-.428-.332-.412-.352-.397-.37-.377-.388-.36-.408-.338-.427-.318-.44-.299-.463-.276-.474-.252-.491-.23-.506-.205-.517-.178-.533-.157-.547-.13-.556-.1-.573-.072-.578-.046-.591-.016-.6.016-.606.04-.598.07-.592.095-.586.12-.579.146-.569.172-.558.195-.553.218-.535.24-.525.267-.511.285-.498.309-.482.328-.464.347-.45.37-.432.386-.41.406-.394.425-.37.442-.35.458-.327.474-.303.493-.279.504-.252.523-.226.535-.202.55-.171.561-.143.572-.11.588-.085.597-.047.607-.017.61.013.598.048.584.077.575.108.561.134.553.165.536.192.519.22.51.241.49.27.477.292.458.317.444.34.425.363.406.38.39.403.37.424.35.444.328.46.312.479.286.495.266.514.244.526.217.542.199.555.168.569.15.582.12.592.094.603.071.616.04.623.015.632h-3.046l-.016-.437-.029-.431-.049-.431-.067-.427-.082-.42-.1-.418-.115-.41-.133-.404-.15-.394-.165-.39-.179-.377-.197-.37-.215-.356-.227-.347-.243-.337-.257-.322-.275-.307-.29-.292-.301-.279-.319-.26-.334-.247-.348-.229-.36-.208-.376-.194-.39-.172-.404-.147-.414-.131-.432-.104-.444-.085-.455-.06-.471-.034-.484-.01-.483.01-.475.04-.457.065-.445.087-.432.11-.419.135-.406.155-.389.175-.376.196-.364.215-.348.232-.334.249-.318.266-.302.283-.289.3-.276.31-.257.322-.243.337-.227.35-.208.36-.198.367-.179.377-.162.387-.146.394-.13.4-.11.404-.097.41-.079.414-.061.418-.046.42-.026.422-.01.424.014.381.028.38.052.379.069.374.088.376.107.371.126.368.143.36.16.353.18.349.194.34.208.334.227.322.24.317.257.303.269.292.28.284.298.269.312.253.32.243.335.226.347.208.36.195.37.176.38.161.39.138.402.12.409.102.419.077.428.057.435.038.442.01H59v3.186h-.002zM13.092 24.957H7v3.188h3.076V44h3.047l-.03-19.043z"/>
                </g>
            </g>
        </g>
    </g>
</svg>
